<?xml version="1.0" encoding="utf-8"?>
<!-- Generator: Adobe Illustrator 23.0.1, SVG Export Plug-In . SVG Version: 6.00 Build 0)  -->
<svg version="1.1" id="Layer_1" xmlns="http://www.w3.org/2000/svg" xmlns:xlink="http://www.w3.org/1999/xlink" x="0px" y="0px"
	 viewBox="0 0 512 512" style="enable-background:new 0 0 512 512;" xml:space="preserve">
<style type="text/css">
	.st0{fill:#FFFFFF;}
</style>
<g id="outline">
	<path class="st0" d="M464,72h-56v-8c0-13.3-10.7-24-24-24s-24,10.7-24,24v8h-80v-8c0-13.3-10.7-24-24-24c-13.3,0-24,10.7-24,24v8
		h-80v-8c0-13.3-10.7-24-24-24s-24,10.7-24,24v8H48c-17.7,0-32,14.3-32,32v336c0,17.7,14.3,32,32,32h416c17.7,0,32-14.3,32-32V104
		C496,86.3,481.7,72,464,72z M376,64c0-4.4,3.6-8,8-8s8,3.6,8,8v32c0,4.4-3.6,8-8,8s-8-3.6-8-8V64z M248,64c0-4.4,3.6-8,8-8
		s8,3.6,8,8v32c0,4.4-3.6,8-8,8s-8-3.6-8-8V64z M120,64c0-4.4,3.6-8,8-8c4.4,0,8,3.6,8,8v32c0,4.4-3.6,8-8,8c-4.4,0-8-3.6-8-8V64z
		 M480,440c0,8.8-7.2,16-16,16H48c-8.8,0-16-7.2-16-16V152h448V440z M480,136H32v-32c0-8.8,7.2-16,16-16h56v8c0,13.3,10.7,24,24,24
		s24-10.7,24-24v-8h80v8c0,13.3,10.7,24,24,24c13.3,0,24-10.7,24-24v-8h80v8c0,13.3,10.7,24,24,24s24-10.7,24-24v-8h56
		c8.8,0,16,7.2,16,16V136z"/>
	<path class="st0" d="M152,288h16c4.4,0,8-3.6,8-8s-3.6-8-8-8h-16c-4.4,0-8,3.6-8,8S147.6,288,152,288z"/>
	<path class="st0" d="M152,264h16c4.4,0,8-3.6,8-8s-3.6-8-8-8h-16c-4.4,0-8,3.6-8,8S147.6,264,152,264z"/>
	<path class="st0" d="M88,248h16v16H88V248z"/>
	<path class="st0" d="M88,280h16v16H88V280z"/>
	<path class="st0" d="M88,312h16v16H88V312z"/>
	<path class="st0" d="M72,384h128c4.4,0,8-3.6,8-8V224c0-4.4-3.6-8-8-8h-16v-24c0-4.4-3.6-8-8-8h-64c-4.4,0-8,3.6-8,8v24H72
		c-4.4,0-8,3.6-8,8v152C64,380.4,67.6,384,72,384z M168,368h-16v-16c0-4.4,3.6-8,8-8s8,3.6,8,8V368z M192,368h-8v-16
		c0-13.3-10.7-24-24-24s-24,10.7-24,24v16h-8v-48h64V368z M192,232v72h-64v-72H192z M120,200h48v16h-48V200z M80,232h32v112H80V232z
		 M80,360h32v8H80V360z"/>
	<path class="st0" d="M272,264c17.7,0,32-14.3,32-32s-14.3-32-32-32s-32,14.3-32,32C240,249.7,254.3,264,272,264z M272,216
		c8.8,0,16,7.2,16,16s-7.2,16-16,16s-16-7.2-16-16C256,223.2,263.2,216,272,216z"/>
	<path class="st0" d="M352,264c17.7,0,32-14.3,32-32s-14.3-32-32-32s-32,14.3-32,32C320,249.7,334.3,264,352,264z M352,216
		c8.8,0,16,7.2,16,16s-7.2,16-16,16s-16-7.2-16-16C336,223.2,343.2,216,352,216z"/>
	<path class="st0" d="M432,264c17.7,0,32-14.3,32-32s-14.3-32-32-32s-32,14.3-32,32C400,249.7,414.3,264,432,264z M432,216
		c8.8,0,16,7.2,16,16s-7.2,16-16,16s-16-7.2-16-16C416,223.2,423.2,216,432,216z"/>
	<path class="st0" d="M272,344c17.7,0,32-14.3,32-32s-14.3-32-32-32s-32,14.3-32,32C240,329.7,254.3,344,272,344z M272,296
		c8.8,0,16,7.2,16,16s-7.2,16-16,16s-16-7.2-16-16C256,303.2,263.2,296,272,296z"/>
	<path class="st0" d="M352,328c-6.8,0-12.8-4.3-15.1-10.7l-15.1,5.3c5.9,16.7,24.2,25.4,40.9,19.5c9.1-3.2,16.3-10.4,19.5-19.5
		l-15.1-5.3C364.8,323.7,358.8,328,352,328L352,328z"/>
	<path class="st0" d="M432,280c-17.7,0-32,14.3-32,32s14.3,32,32,32s32-14.3,32-32C464,294.3,449.7,280,432,280z M432,328
		c-8.8,0-16-7.2-16-16s7.2-16,16-16s16,7.2,16,16C448,320.8,440.8,328,432,328z"/>
	<path class="st0" d="M272,424c17.7,0,32-14.3,32-32s-14.3-32-32-32s-32,14.3-32,32C240,409.7,254.3,424,272,424z M272,376
		c8.8,0,16,7.2,16,16s-7.2,16-16,16s-16-7.2-16-16C256,383.2,263.2,376,272,376z"/>
	<path class="st0" d="M352,424c17.7,0,32-14.3,32-32s-14.3-32-32-32s-32,14.3-32,32C320,409.7,334.3,424,352,424z M352,376
		c8.8,0,16,7.2,16,16s-7.2,16-16,16s-16-7.2-16-16C336,383.2,343.2,376,352,376z"/>
	<path class="st0" d="M432,360c-17.7,0-32,14.3-32,32s14.3,32,32,32s32-14.3,32-32C464,374.3,449.7,360,432,360z M432,408
		c-8.8,0-16-7.2-16-16s7.2-16,16-16s16,7.2,16,16C448,400.8,440.8,408,432,408z"/>
	<path class="st0" d="M320,168h72v16h-72V168z"/>
	<path class="st0" d="M385.9,258.9l-34.4,41.3l-9.8-9.8c-3.1-3.1-8.2-3.1-11.3,0s-3.1,8.2,0,11.3l16,16c1.5,1.5,3.5,2.3,5.7,2.3
		c0.1,0,0.2,0,0.4,0c2.2-0.1,4.3-1.1,5.8-2.9l40-48c2.8-3.4,2.3-8.5-1.1-11.3C393.7,255.1,388.7,255.5,385.9,258.9L385.9,258.9z"/>
	<path class="st0" d="M104,400h16v16h-16V400z"/>
	<path class="st0" d="M136,400h16v16h-16V400z"/>
	<path class="st0" d="M168,400h16v16h-16V400z"/>
</g>
</svg>
