<?xml version="1.0" encoding="utf-8"?>
<!-- Generator: Adobe Illustrator 23.0.1, SVG Export Plug-In . SVG Version: 6.00 Build 0)  -->
<svg version="1.1" id="Layer_1" xmlns="http://www.w3.org/2000/svg" xmlns:xlink="http://www.w3.org/1999/xlink" x="0px" y="0px"
	 viewBox="0 0 512 512" style="enable-background:new 0 0 512 512;" xml:space="preserve">
<style type="text/css">
	.st0{fill:#FFFFFF;}
</style>
<path class="st0" d="M298.7,85.3H128c-4.7,0-8.5-3.8-8.5-8.5V8.5c0-4.7,3.8-8.5,8.5-8.5h170.7c4.7,0,8.5,3.8,8.5,8.5v68.3
	C307.2,81.5,303.4,85.3,298.7,85.3z M136.5,68.3h153.6V17.1H136.5V68.3z"/>
<path class="st0" d="M375.5,477.9H42.7c-4.7,0-8.5-3.8-8.5-8.5V59.7c0-4.7,3.8-8.5,8.5-8.5H128c4.7,0,8.5,3.8,8.5,8.5v8.5h153.6
	v-8.5c0-4.7,3.8-8.5,8.5-8.5h76.8c4.7,0,8.5,3.8,8.5,8.5v409.6C384,474.1,380.2,477.9,375.5,477.9z M51.2,460.8h315.7V68.3h-59.7
	v8.5c0,4.7-3.8,8.5-8.5,8.5H128c-4.7,0-8.5-3.8-8.5-8.5v-8.5H51.2V460.8z"/>
<path class="st0" d="M387.2,512H30.9C13.9,512,0,498.1,0,481.1V48c0-17.1,13.9-30.9,30.9-30.9H128c4.7,0,8.5,3.8,8.5,8.5v42.7h153.6
	V25.6c0-4.7,3.8-8.5,8.5-8.5h88.5c17.1,0,30.9,13.9,30.9,30.9v433.1C418.1,498.1,404.3,512,387.2,512z M30.9,34.1
	c-7.6,0-13.9,6.2-13.9,13.9v433.1c0,7.6,6.2,13.9,13.9,13.9h356.3c7.6,0,13.9-6.2,13.9-13.9V48c0-7.6-6.2-13.9-13.9-13.9h-80v42.7
	c0,4.7-3.8,8.5-8.5,8.5H128c-4.7,0-8.5-3.8-8.5-8.5V34.1H30.9z"/>
<path class="st0" d="M477.9,486.4c-2.7,0-5.2-1.3-6.8-3.4l-25.6-34.1c-1.1-1.5-1.7-3.3-1.7-5.1V38.7c0-11.9,9.7-21.6,21.6-21.6h25.1
	c11.9,0,21.6,9.7,21.6,21.6v405.1c0,1.9-0.6,3.6-1.7,5.1L484.7,483C483.1,485.1,480.6,486.4,477.9,486.4L477.9,486.4z M460.8,440.9
	l17.1,22.7l17.1-22.7V38.7c0-2.5-2-4.5-4.5-4.5h-25.1c-2.5,0-4.5,2-4.5,4.5L460.8,440.9z M503.5,443.7L503.5,443.7L503.5,443.7z"/>
<path class="st0" d="M477.6,512c-4.7,0-8.5-3.8-8.5-8.5v-25.6c0-4.7,3.8-8.5,8.5-8.5c4.7,0,8.5,3.8,8.5,8.5v25.6
	C486.1,508.2,482.3,512,477.6,512z"/>
<path class="st0" d="M503.5,85.3h-51.2c-4.7,0-8.5-3.8-8.5-8.5V38.7c0-11.9,9.7-21.6,21.6-21.6h25.1c11.9,0,21.6,9.7,21.6,21.6v38.1
	C512,81.5,508.2,85.3,503.5,85.3L503.5,85.3z M460.8,68.3h34.1V38.7c0-2.5-2-4.5-4.5-4.5h-25.1c-2.5,0-4.5,2-4.5,4.5L460.8,68.3z"/>
<path class="st0" d="M477.6,486.4c-2.7,0-5.2-1.3-6.8-3.4l-25.6-34.1c-1.1-1.5-1.7-3.3-1.7-5.1v-51.2c0-4.7,3.8-8.5,8.5-8.5h51.2
	c4.7,0,8.5,3.8,8.5,8.5v51.2c0,1.9-0.6,3.6-1.7,5.1L484.4,483C482.8,485.1,480.3,486.4,477.6,486.4z M460.5,440.9l17.1,22.7
	l17.1-22.7v-39.8h-34.1V440.9z"/>
<path class="st0" d="M503.5,264.5h-51.2c-4.7,0-8.5-3.8-8.5-8.5v-68.3c0-4.7,3.8-8.5,8.5-8.5h51.2c4.7,0,8.5,3.8,8.5,8.5V256
	C512,260.7,508.2,264.5,503.5,264.5z M460.8,247.5h34.1v-51.2h-34.1V247.5z"/>
<path class="st0" d="M213.3,298.7c-51.8,0-93.9-42.1-93.9-93.9s42.1-93.9,93.9-93.9s93.9,42.1,93.9,93.9S265.1,298.7,213.3,298.7z
	 M213.3,128c-42.4,0-76.8,34.4-76.8,76.8s34.4,76.8,76.8,76.8s76.8-34.4,76.8-76.8S255.7,128,213.3,128z"/>
<path class="st0" d="M230.4,264.5h-34.1c-4.7,0-8.5-3.8-8.5-8.5v-25.6h-25.6c-4.7,0-8.5-3.8-8.5-8.5v-34.1c0-4.7,3.8-8.5,8.5-8.5
	h25.6v-25.6c0-4.7,3.8-8.5,8.5-8.5h34.1c4.7,0,8.5,3.8,8.5,8.5v25.6h25.6c4.7,0,8.5,3.8,8.5,8.5v34.1c0,4.7-3.8,8.5-8.5,8.5h-25.6
	V256C238.9,260.7,235.1,264.5,230.4,264.5z M204.8,247.5h17.1v-25.6c0-4.7,3.8-8.5,8.5-8.5H256v-17.1h-25.6c-4.7,0-8.5-3.8-8.5-8.5
	v-25.6h-17.1v25.6c0,4.7-3.8,8.5-8.5,8.5h-25.6v17.1h25.6c4.7,0,8.5,3.8,8.5,8.5V247.5z"/>
<path class="st0" d="M290.1,392.5H187.7c-4.7,0-8.5-3.8-8.5-8.5c0-4.7,3.8-8.5,8.5-8.5h102.4c4.7,0,8.5,3.8,8.5,8.5
	C298.7,388.7,294.8,392.5,290.1,392.5z"/>
<path class="st0" d="M153.6,392.5H76.8c-4.7,0-8.5-3.8-8.5-8.5c0-4.7,3.8-8.5,8.5-8.5h76.8c4.7,0,8.5,3.8,8.5,8.5
	C162.1,388.7,158.3,392.5,153.6,392.5z"/>
<path class="st0" d="M341.3,392.5h-17.1c-4.7,0-8.5-3.8-8.5-8.5c0-4.7,3.8-8.5,8.5-8.5h17.1c4.7,0,8.5,3.8,8.5,8.5
	C349.9,388.7,346,392.5,341.3,392.5z"/>
<path class="st0" d="M230.4,349.9H128c-4.7,0-8.5-3.8-8.5-8.5c0-4.7,3.8-8.5,8.5-8.5h102.4c4.7,0,8.5,3.8,8.5,8.5
	C238.9,346.1,235.1,349.9,230.4,349.9z"/>
<path class="st0" d="M341.3,349.9h-76.8c-4.7,0-8.5-3.8-8.5-8.5c0-4.7,3.8-8.5,8.5-8.5h76.8c4.7,0,8.5,3.8,8.5,8.5
	C349.9,346.1,346,349.9,341.3,349.9z"/>
<path class="st0" d="M93.9,349.9H76.8c-4.7,0-8.5-3.8-8.5-8.5c0-4.7,3.8-8.5,8.5-8.5h17.1c4.7,0,8.5,3.8,8.5,8.5
	C102.4,346.1,98.6,349.9,93.9,349.9z"/>
<path class="st0" d="M230.4,435.2H128c-4.7,0-8.5-3.8-8.5-8.5s3.8-8.5,8.5-8.5h102.4c4.7,0,8.5,3.8,8.5,8.5S235.1,435.2,230.4,435.2
	z"/>
<path class="st0" d="M341.3,435.2h-76.8c-4.7,0-8.5-3.8-8.5-8.5s3.8-8.5,8.5-8.5h76.8c4.7,0,8.5,3.8,8.5,8.5S346,435.2,341.3,435.2z
	"/>
<path class="st0" d="M93.9,435.2H76.8c-4.7,0-8.5-3.8-8.5-8.5s3.8-8.5,8.5-8.5h17.1c4.7,0,8.5,3.8,8.5,8.5S98.6,435.2,93.9,435.2z"
	/>
</svg>
