<?xml version="1.0" encoding="utf-8"?>
<!-- Generator: Adobe Illustrator 23.0.1, SVG Export Plug-In . SVG Version: 6.00 Build 0)  -->
<svg version="1.1" id="Capa_1" xmlns="http://www.w3.org/2000/svg" xmlns:xlink="http://www.w3.org/1999/xlink" x="0px" y="0px"
	 viewBox="0 0 512 512" style="enable-background:new 0 0 512 512;" xml:space="preserve">
<style type="text/css">
	.st0{fill:#FFFFFF;}
</style>
<g>
	<g>
		<path class="st0" d="M451.3,423.8c-1.1-69.6-72.3-90.1-124.2-105.2c-6.1-1.8-11.9-3.4-17.4-5.1v-28.7
			c10.6-6.7,19.9-15.2,27.4-25.2h31.6c15.5,0,28.1-12.6,28.1-28.1v-34c1.9-4.4,2.9-9.2,2.9-14.2v-10.6c0-5.1-1-9.9-2.9-14.2v-17.5
			C396.9,63.2,333.7,0,256,0c-77.7,0-140.9,63.2-140.9,140.9v17c0,0.1,0,0.3,0,0.4c-1.9,4.4-3,9.3-3,14.3v10.6
			c0,20,16.2,36.2,36.2,36.2h8.3c5.7,27.4,22.6,50.9,45.6,65.3v28.7c-5.5,1.7-11.3,3.4-17.4,5.1c-51.9,15-123.1,35.6-124.2,105.2
			c0,0.1,0,0.1,0,0.2V502c0,5.5,4.5,10,10,10h29.6c5.5,0,10-4.5,10-10s-4.5-10-10-10H80.7v-68c0.4-24.3,11.6-42.5,35.1-57.3
			c15.5-9.8,34.5-16.7,53.2-22.5l24.2,47.1c2.7,5.2,9.6,7,14.5,3.7l10.8-7.3l9.2,34.8L211.8,492h-21.7c-5.5,0-10,4.5-10,10
			s4.5,10,10,10h251.2c5.5,0,10-4.5,10-10v-78.1C451.3,423.9,451.3,423.8,451.3,423.8L451.3,423.8z M321.5,337.8
			c0.7,0.2,1.3,0.4,2,0.6l-17.3,33.7l-32.4-21.8l27.4-18.5C307.7,333.8,314.4,335.8,321.5,337.8L321.5,337.8z M256,362.4l20.1,13.5
			l-9.7,36.4h-20.7l-9.7-36.4L256,362.4z M256,338.2l-33.7-22.8v-21.1c10.6,3.7,21.9,5.8,33.7,5.8c11.8,0,23.2-2,33.7-5.8v21
			L256,338.2z M337.5,142.7c-0.1-0.1-0.3-0.2-0.4-0.3c-20.5-13.1-38.2-24.3-66-16.4c-0.3,0.1-0.5,0.2-0.8,0.3
			c-5.9,2.2-11.2,4.3-16.4,6.3c-31.6,12.2-48.9,18.8-79.3,18v-8c0-44.9,36.5-81.5,81.5-81.5s81.5,36.5,81.5,81.5L337.5,142.7
			L337.5,142.7z M376.9,231.5c0,4.5-3.6,8.1-8.1,8.1h-19.9c2.8-6.4,5-13.1,6.5-20.1h8.3c4.7,0,9.2-0.9,13.3-2.5L376.9,231.5
			L376.9,231.5z M379.8,183.2c0,9-7.3,16.2-16.2,16.2h-6.1c0-0.2,0-43,0-43h6.1c8.9,0,16.2,7.3,16.2,16.2L379.8,183.2L379.8,183.2z
			 M148.4,199.5c-8.9,0-16.2-7.3-16.2-16.2v-10.6c0-8.9,7.3-16.2,16.2-16.2h6.1c0,0,0,42.8,0,43H148.4z M154.7,136.5h-6.3
			c-4.7,0-9.1,0.9-13.2,2.5C136.2,73.2,190,20,256,20c66,0,119.8,53.2,120.9,119c-4.1-1.6-8.6-2.5-13.3-2.5h-6.3
			c-3.2-53.1-47.4-95.4-101.3-95.4C202.1,41.1,157.9,83.3,154.7,136.5L154.7,136.5z M175.1,208.5
			C175.1,208.5,175.1,208.5,175.1,208.5c-0.4-3.2-0.6-6.4-0.6-9.7v-28.2c34.2,0.8,54.6-7,86.5-19.3c5-1.9,10.2-3.9,15.9-6.1
			c18.9-5.3,29.8,1.6,49.4,14.1c3.4,2.2,7.1,4.5,11.1,7v32.4c0,14.9-4,28.8-11,40.8H256c-5.5,0-10,4.5-10,10s4.5,10,10,10h54.1
			c-14.4,12.8-33.4,20.6-54.1,20.6C214.4,280.2,180,248.8,175.1,208.5L175.1,208.5z M205.8,372.1l-17.3-33.7c0.7-0.2,1.3-0.4,2-0.6
			c7.1-2,13.9-4,20.2-6l27.4,18.5L205.8,372.1z M232.3,492l13.6-59.7h20.2l13.6,59.7H232.3z M431.3,492H300.2l-15.9-69.5l9.3-34.8
			l10.8,7.3c4.9,3.3,11.8,1.5,14.5-3.7l24.1-47.1c18.7,5.8,37.7,12.8,53.2,22.5c23.5,14.8,34.7,33,35.1,57.3L431.3,492L431.3,492z"
			/>
		<path class="st0" d="M391.8,442h-50.4c-5.5,0-10,4.5-10,10s4.5,10,10,10h50.4c5.5,0,10-4.5,10-10S397.4,442,391.8,442z"/>
		<path class="st0" d="M145.2,492c-5.5,0-10,4.5-10,10s4.5,10,10,10h0c5.5,0,10-4.5,10-10S150.7,492,145.2,492z"/>
	</g>
</g>
</svg>
